<?xml version="1.0" encoding="utf-8"?>
<!-- Generator: Adobe Illustrator 22.1.0, SVG Export Plug-In . SVG Version: 6.00 Build 0)  -->
<svg version="1.1" xmlns="http://www.w3.org/2000/svg" xmlns:xlink="http://www.w3.org/1999/xlink" x="0px" y="0px"
	 viewBox="0 0 1300 561.1" style="enable-background:new 0 0 1300 561.1;" xml:space="preserve">
<style type="text/css">
	.st0{display:none;}
	.st1{display:inline;}
	.st2{fill:none;}
	.st3{fill:#1C3664;}
	.st4{fill:#EFA220;}
	.st5{fill:#122F53;}
	.st6{fill:#113053;}
	.st7{fill:url(#SVGID_1_);}
	.st8{fill:url(#SVGID_2_);}
	.st9{fill:url(#SVGID_3_);}
	.st10{fill:url(#SVGID_4_);}
	.st11{fill:url(#SVGID_5_);}
	.st12{fill:url(#SVGID_6_);}
	.st13{fill:#FFFFFF;}
	.st14{display:none;fill:#EFA220;}
	.st15{display:none;fill:#FFFFFF;}
	.st16{display:inline;fill:#FFFFFF;}
	.st17{display:inline;fill:#122F53;}
	.st18{display:inline;fill:#EFA220;}
	.st19{display:none;fill:#122F53;}
</style>
<g id="Camada_1" class="st0">
	<g class="st1">
		<g>
			<path class="st2" d="M1029,241.3c13,0,23.6-10.6,23.6-23.6c0-13-10.6-23.6-23.6-23.6c-13,0-23.6,10.6-23.6,23.6
				C1005.4,230.7,1016,241.3,1029,241.3z"/>
			<path class="st2" d="M1061.9,289.2c-0.7-0.5-1.7-0.9-2.6-0.9c-1.7,0-3.2,0.9-3.9,2.3l1.1-0.3
				C1056.7,290.2,1058.6,289.6,1061.9,289.2z"/>
			<path class="st2" d="M919.9,351.6c15.1,25,47.2,46.2,97.7,64.7c-31.8-43.9-49-80.4-52.9-112.5c-4.8,2-9.9,4.6-15.3,8.2
				C925.7,328,920.8,346.3,919.9,351.6z"/>
			<path class="st2" d="M937.3,294c8.9-6,11.3-18.2,5.3-27.2c-3.6-5.4-9.7-8.6-16.2-8.6c-3.9,0-7.7,1.2-10.9,3.3
				c-8.9,6-11.3,18.2-5.3,27.2c3.6,5.4,9.7,8.6,16.2,8.6C930.3,297.4,934.1,296.2,937.3,294z"/>
			<path class="st2" d="M1003.4,288.7l-0.1-0.2c-1-1.6-3.2-4-4.8-4c-1.2,0-2.4,1.6-3.1,2.5c-0.4,0.7-0.8,1.3-1.1,2.1
				c4.3,0.4,6.9,1.2,7.3,1.3l1.5,0.5l0.9,1.2c0.7,0.8,1.3,1.7,1.9,2.5c-0.7-3.7-2.2-5.5-2.3-5.6L1003.4,288.7z"/>
			<path class="st2" d="M1138.1,351.6c-0.9-5.2-5.8-23.6-29.5-39.6c-5.4-3.6-10.5-6.3-15.3-8.2c-3.9,32.2-21.2,68.7-52.9,112.5
				C1091,397.8,1123,376.6,1138.1,351.6z"/>
			<path class="st2" d="M1142.6,261.6c-3.2-2.2-7-3.3-10.9-3.3c-6.5,0-12.6,3.2-16.2,8.6c-6,8.9-3.7,21.1,5.3,27.2
				c3.2,2.2,7,3.3,10.9,3.3c6.5,0,12.6-3.2,16.2-8.6C1153.9,279.8,1151.5,267.6,1142.6,261.6z"/>
			<path class="st3" d="M1148.2,253.3c-4.9-3.3-10.6-5-16.5-5c-9.8,0-19,4.9-24.5,13c-9.1,13.5-5.5,31.9,8,41c4.9,3.3,10.6,5,16.5,5
				c9.8,0,19-4.9,24.5-13C1165.2,280.8,1161.7,262.4,1148.2,253.3z M1147.9,288.7c-3.6,5.4-9.7,8.6-16.2,8.6
				c-3.9,0-7.7-1.2-10.9-3.3c-8.9-6-11.3-18.2-5.3-27.2c3.6-5.4,9.7-8.6,16.2-8.6c3.9,0,7.7,1.2,10.9,3.3
				C1151.5,267.6,1153.9,279.8,1147.9,288.7z"/>
			<path class="st3" d="M1114.2,303.7c-7.1-4.8-13.8-8.1-20-10.4c-0.1,3.4-0.4,6.9-0.8,10.4c4.8,2,9.9,4.6,15.3,8.2
				c23.7,16,28.6,34.4,29.5,39.6c-15.1,25-47.2,46.2-97.7,64.7c-2.4,3.3-4.8,6.6-7.4,10l-3.2,4.3v0l4.8-1.6
				c60.1-20.7,96-44.1,113.1-73.8l0.8-1.3l-0.1-1.5C1148.2,351.1,1145.8,325,1114.2,303.7z"/>
			<path class="st3" d="M926.4,307.3c5.9,0,11.6-1.7,16.5-5c13.5-9.1,17.1-27.5,8-41c-5.5-8.2-14.7-13-24.5-13
				c-5.9,0-11.6,1.7-16.5,5c-13.5,9.1-17.1,27.5-8,41C907.4,302.5,916.6,307.3,926.4,307.3L926.4,307.3z M910.2,288.7
				c-6-8.9-3.7-21.1,5.3-27.2c3.2-2.2,7-3.3,10.9-3.3c6.5,0,12.6,3.2,16.2,8.6c6,8.9,3.7,21.1-5.3,27.2c-3.2,2.2-7,3.3-10.9,3.3
				C919.9,297.4,913.8,294.1,910.2,288.7z"/>
			<path class="st3" d="M1025,426.3c-2.6-3.4-5-6.7-7.4-10c-50.6-18.5-82.6-39.7-97.7-64.7c0.9-5.3,5.8-23.6,29.5-39.6
				c5.4-3.6,10.5-6.3,15.3-8.2c-0.4-3.5-0.7-7-0.8-10.4c-6.2,2.3-13,5.6-20,10.4c-31.6,21.3-34,47.4-34.1,48.5l-0.1,1.5l0.8,1.3
				c17.1,29.7,53,53.2,113.1,73.8l4.8,1.6l0,0L1025,426.3z"/>
			<g>
				<path class="st4" d="M1029,251.2c18.5,0,33.6-15.1,33.6-33.6s-15.1-33.6-33.6-33.6c-18.5,0-33.6,15.1-33.6,33.6
					S1010.5,251.2,1029,251.2z M1029,194c13,0,23.6,10.6,23.6,23.6c0,13-10.6,23.6-23.6,23.6c-13,0-23.6-10.6-23.6-23.6
					C1005.4,204.6,1016,194,1029,194z"/>
				<path class="st4" d="M1094,281.9l-0.1-1.5l-1-1.2c-0.8-1-19.8-24.3-63.9-24.3c-44.1,0-63.1,23.3-63.9,24.3l-1,1.2l-0.1,1.5
					c-0.3,3.7-0.3,7.5-0.2,11.4c0.1,3.4,0.4,6.9,0.8,10.4c3.9,32.2,21.2,68.7,52.9,112.5c2.4,3.3,4.8,6.6,7.4,10l3.2,4.3l0.3,0.4
					l0.4,0.6l0.4-0.6l0.3-0.4l3.2-4.3c2.6-3.4,5-6.7,7.4-10c31.8-43.9,49-80.4,52.9-112.5c0.4-3.5,0.7-7,0.8-10.4
					C1094.3,289.5,1094.2,285.7,1094,281.9z M1055.3,290.6c0.8-1.4,2.3-2.3,3.9-2.3c1,0,1.9,0.3,2.6,0.9c1.2,0.8,1.9,2.2,1.9,3.7
					c0,2.5-2.1,4.6-4.6,4.6c-2.5,0-4.6-2.1-4.6-4.6C1054.7,292.1,1054.9,291.3,1055.3,290.6z M1083.6,300.5
					c-3.2,29.1-18.5,63.1-46.4,103c-2.1,3.1-4.4,6.2-6.6,9.3c-0.5,0.7-1,1.4-1.6,2.2c-2.9-3.9-5.6-7.7-8.2-11.5
					c-27.9-39.9-43.2-73.9-46.4-103c-0.4-3.4-0.6-6.8-0.6-10.1c0-2.1,0-4.1,0.1-6.1c2.5-2.7,10-9.6,23.6-14.4
					c-2.8,4.1-4,7.8-4.4,9.4c-1.1,0.8-2.3,2-3.4,3.7c-1.2,1.8-2.1,3.8-2.6,5.7c-0.9,3.4-0.7,6.8-0.2,10c1.2,6.5,4.2,11.7,4.4,12
					l6-3.6c0-0.1-2.1-3.6-3.2-8.2c-0.8-3.2-1-6.8,0.2-10c0.3-0.7,0.6-1.4,1.1-2.1c0.6-0.9,1.9-2.5,3.1-2.5c1.6,0,3.8,2.4,4.8,4
					l0.1,0.2l0.2,0.2c0.1,0.1,1.6,1.9,2.3,5.6c0.5,2.6,0.7,6.2-0.3,10.8l6.8,1.5c0.1-0.5,0.2-1,0.3-1.5c2.2-12.3-2.5-19.2-3.6-20.7
					c-0.3-0.5-1.2-1.7-2.4-3c-0.9-0.9-1.9-1.8-3.1-2.5c2.1-5,8.6-14.5,27.9-13.3c8.9,0.5,15.3,3,19.1,7.4c2.9,3.4,3.6,7.1,3.7,9.3
					c-1,0.5-2,1.1-2.8,1.9c-2.3,2.1-3.8,5.2-3.8,8.5c0,2.1,0.6,4,1.5,5.7c1.7,3,4.7,5.1,8.2,5.7c0.6,0.1,1.2,0.2,1.8,0.2
					c4.3,0,8-2.3,10-5.8c1-1.7,1.6-3.7,1.6-5.8c0-1.5-0.3-2.9-0.8-4.2c-1.1-2.7-3.1-5-5.8-6.2c-0.1-3-0.9-7.8-3.8-12.6
					c13.6,4.8,21.1,11.7,23.6,14.4c0.1,2,0.1,4,0.1,6.1C1084.2,293.7,1084,297.1,1083.6,300.5z"/>
			</g>
		</g>
	</g>
	<g class="st1">
		<g>
			<path class="st5" d="M463.1,308.9h16l17.7,28.5l17.7-28.5h16v67.5h-14.7v-44l-19,28.8h-0.4l-18.8-28.5v43.8h-14.6V308.9z"/>
			<path class="st5" d="M546.8,308.9h50.9v13.2h-36.1v13.7h31.8V349h-31.8v14.2h36.6v13.2h-51.4V308.9z"/>
			<path class="st5" d="M611.3,308.9h26.3c21.2,0,35.9,14.6,35.9,33.5v0.2c0,19-14.7,33.7-35.9,33.7h-26.3V308.9z M637.6,363
				c12.1,0,20.3-8.2,20.3-20.1v-0.2c0-12-8.2-20.3-20.3-20.3h-11.5V363H637.6z"/>
			<path class="st5" d="M687.4,308.9h14.8v67.5h-14.8V308.9z"/>
			<path class="st5" d="M716.1,342.9v-0.2c0-19.2,14.5-34.9,35.2-34.9c12.7,0,20.3,4.2,26.6,10.4l-9.4,10.9
				c-5.2-4.7-10.5-7.6-17.3-7.6c-11.4,0-19.6,9.4-19.6,21v0.2c0,11.6,8,21.2,19.6,21.2c7.7,0,12.4-3.1,17.7-7.9l9.4,9.5
				c-6.9,7.4-14.6,12-27.7,12C730.8,377.6,716.1,362.2,716.1,342.9z"/>
			<path class="st5" d="M813.3,308.4H827l28.9,67.9h-15.5l-6.2-15.1h-28.5l-6.2,15.1h-15.1L813.3,308.4z M828.9,348.2l-9-21.9
				l-9,21.9H828.9z"/>
			<path class="st5" d="M866.3,308.9h14.8v54h33.6v13.5h-48.5V308.9z"/>
			<path class="st4" d="M457.8,447.7l6.9-8.3c4.8,4,9.8,6.5,15.9,6.5c4.8,0,7.7-1.9,7.7-5v-0.2c0-3-1.8-4.5-10.7-6.8
				c-10.7-2.7-17.7-5.7-17.7-16.3v-0.2c0-9.7,7.8-16.1,18.7-16.1c7.8,0,14.4,2.4,19.8,6.8l-6.1,8.8c-4.7-3.3-9.4-5.3-13.9-5.3
				c-4.5,0-6.9,2.1-6.9,4.6v0.2c0,3.5,2.3,4.6,11.5,7c10.8,2.8,16.9,6.7,16.9,16v0.2c0,10.6-8.1,16.5-19.6,16.5
				C472.3,456.2,464.2,453.4,457.8,447.7z"/>
			<path class="st4" d="M507.8,428.9v-0.2c0-15.2,12-27.6,28.4-27.6s28.3,12.3,28.3,27.4v0.2c0,15.2-12,27.6-28.4,27.6
				C519.7,456.4,507.8,444.1,507.8,428.9z M552.3,428.9v-0.2c0-9.1-6.7-16.8-16.2-16.8c-9.5,0-16,7.5-16,16.6v0.2
				c0,9.1,6.7,16.8,16.2,16.8C545.7,445.6,552.3,438.1,552.3,428.9z"/>
			<path class="st4" d="M575,402.1h11.7v42.7h26.6v10.7H575V402.1z"/>
			<path class="st4" d="M619.8,432.6v-30.5h11.7v30.2c0,8.7,4.3,13.2,11.5,13.2c7.2,0,11.5-4.3,11.5-12.8v-30.6h11.7v30.1
				c0,16.2-9.1,24.1-23.4,24.1S619.8,448.3,619.8,432.6z"/>
			<path class="st4" d="M690.7,412.9h-16.2v-10.8h44.2v10.8h-16.2v42.5h-11.7V412.9z"/>
			<path class="st4" d="M728.2,402.1H740v53.4h-11.7V402.1z"/>
			<path class="st4" d="M751,428.9v-0.2c0-15.2,12-27.6,28.4-27.6c16.5,0,28.3,12.3,28.3,27.4v0.2c0,15.2-12,27.6-28.4,27.6
				C762.8,456.4,751,444.1,751,428.9z M795.4,428.9v-0.2c0-9.1-6.7-16.8-16.2-16.8s-16,7.5-16,16.6v0.2c0,9.1,6.7,16.8,16.2,16.8
				C788.8,445.6,795.4,438.1,795.4,428.9z"/>
			<path class="st4" d="M818.1,402.1H829l25,32.8v-32.8h11.6v53.4h-10l-25.8-33.9v33.9h-11.6V402.1z"/>
			<path class="st4" d="M874.7,447.7l6.9-8.3c4.8,4,9.8,6.5,15.9,6.5c4.8,0,7.7-1.9,7.7-5v-0.2c0-3-1.8-4.5-10.7-6.8
				c-10.7-2.7-17.7-5.7-17.7-16.3v-0.2c0-9.7,7.8-16.1,18.7-16.1c7.8,0,14.4,2.4,19.8,6.8l-6.1,8.8c-4.7-3.3-9.4-5.3-13.9-5.3
				c-4.5,0-6.9,2.1-6.9,4.6v0.2c0,3.5,2.3,4.6,11.5,7c10.8,2.8,16.9,6.7,16.9,16v0.2c0,10.6-8.1,16.5-19.6,16.5
				C889.3,456.2,881.1,453.4,874.7,447.7z"/>
		</g>
		<g>
			<path class="st6" d="M474.8,264.8h-8.6V259h23.5v5.8H481v22.6h-6.2V264.8z"/>
			<path class="st6" d="M494.5,259h6.2v11.2h11.5V259h6.2v28.4h-6.2v-11.4h-11.5v11.4h-6.2V259z"/>
			<path class="st6" d="M525.3,259h21.4v5.6h-15.2v5.8h13.4v5.6h-13.4v6h15.4v5.6h-21.6V259z"/>
		</g>
		<g>
			<g>
				<linearGradient id="SVGID_1_" gradientUnits="userSpaceOnUse" x1="355.1743" y1="295.0053" x2="380.66" y2="339.1479">
					<stop  offset="0" style="stop-color:#1C3664"/>
					<stop  offset="0.428" style="stop-color:#1B3866"/>
					<stop  offset="0.6512" style="stop-color:#163E6E"/>
					<stop  offset="0.8266" style="stop-color:#0E497B"/>
					<stop  offset="0.9771" style="stop-color:#02588E"/>
					<stop  offset="1" style="stop-color:#005B92"/>
				</linearGradient>
				<path class="st7" d="M346.8,302.8c7.9-11.7,23.7-14.7,35.4-6.9c11.7,7.9,14.7,23.7,6.9,35.4c-7.9,11.7-23.7,14.7-35.4,6.9
					C342,330.3,338.9,314.5,346.8,302.8z"/>
				<linearGradient id="SVGID_2_" gradientUnits="userSpaceOnUse" x1="264.7117" y1="401.3223" x2="380.0176" y2="401.3223">
					<stop  offset="0" style="stop-color:#1C3664"/>
					<stop  offset="0.428" style="stop-color:#1B3866"/>
					<stop  offset="0.6512" style="stop-color:#163E6E"/>
					<stop  offset="0.8266" style="stop-color:#0E497B"/>
					<stop  offset="0.9771" style="stop-color:#02588E"/>
					<stop  offset="1" style="stop-color:#005B92"/>
				</linearGradient>
				<path class="st8" d="M380,394.7c0,0-2-25.5-33.1-46.5c-31.1-21-55.5-13.3-55.5-13.3c-23.4,29.8-28.9,77.6-25.9,134.1
					C318.9,450.7,361.1,427.6,380,394.7z"/>
			</g>
			<g>
				<g>
					<g>
						<linearGradient id="SVGID_3_" gradientUnits="userSpaceOnUse" x1="132.8249" y1="329.8171" x2="176.9594" y2="304.3361">
							<stop  offset="0" style="stop-color:#005B92"/>
							<stop  offset="2.293146e-02" style="stop-color:#02588E"/>
							<stop  offset="0.1734" style="stop-color:#0E497B"/>
							<stop  offset="0.3488" style="stop-color:#163E6E"/>
							<stop  offset="0.572" style="stop-color:#1B3866"/>
							<stop  offset="1" style="stop-color:#1C3664"/>
						</linearGradient>
						<circle class="st9" cx="154.9" cy="317.1" r="25.5"/>
					</g>
					<g>
						<linearGradient id="SVGID_4_" gradientUnits="userSpaceOnUse" x1="142.7918" y1="401.3223" x2="258.0977" y2="401.3223">
							<stop  offset="0" style="stop-color:#005B92"/>
							<stop  offset="2.293146e-02" style="stop-color:#02588E"/>
							<stop  offset="0.1734" style="stop-color:#0E497B"/>
							<stop  offset="0.3488" style="stop-color:#163E6E"/>
							<stop  offset="0.572" style="stop-color:#1B3866"/>
							<stop  offset="1" style="stop-color:#1C3664"/>
						</linearGradient>
						<path class="st10" d="M142.8,394.7c0,0,2-25.5,33.1-46.5c31.1-21,55.5-13.3,55.5-13.3c23.4,29.8,28.9,77.6,25.9,134.1
							C203.9,450.7,161.7,427.6,142.8,394.7z"/>
					</g>
				</g>
			</g>
			<g>
				<linearGradient id="SVGID_5_" gradientUnits="userSpaceOnUse" x1="261.4046" y1="284.3265" x2="261.4046" y2="224.9859">
					<stop  offset="0" style="stop-color:#EFA220"/>
					<stop  offset="0.3726" style="stop-color:#EFA421"/>
					<stop  offset="0.5671" style="stop-color:#F0AC22"/>
					<stop  offset="0.7203" style="stop-color:#F2BA26"/>
					<stop  offset="0.852" style="stop-color:#F5CD2A"/>
					<stop  offset="0.9688" style="stop-color:#F8E530"/>
					<stop  offset="1" style="stop-color:#F9ED32"/>
				</linearGradient>
				<circle class="st11" cx="261.4" cy="254.7" r="29.7"/>
				<g>
					<linearGradient id="SVGID_6_" gradientUnits="userSpaceOnUse" x1="261.4046" y1="298.4597" x2="261.4046" y2="468.0831">
						<stop  offset="0" style="stop-color:#EFA220"/>
						<stop  offset="0.3646" style="stop-color:#EDA020"/>
						<stop  offset="0.5548" style="stop-color:#E59A21"/>
						<stop  offset="0.7047" style="stop-color:#D78F22"/>
						<stop  offset="0.8336" style="stop-color:#C48024"/>
						<stop  offset="0.9479" style="stop-color:#AC6D26"/>
						<stop  offset="1" style="stop-color:#9E6227"/>
					</linearGradient>
					<path class="st12" d="M323.6,321.8c0,0-18.5-23.3-62.2-23.3s-62.2,23.3-62.2,23.3c-3.1,44,22.6,93.8,62.2,146.3
						C301,415.6,326.8,365.8,323.6,321.8z"/>
					<path class="st13" d="M261.4,298.5c43.7,0,62.2,23.3,62.2,23.3c3.1,44-22.6,93.8-62.2,146.3c-39.6-52.5-65.4-102.3-62.2-146.3
						C199.2,321.8,217.7,298.5,261.4,298.5 M261.4,293.3c-45.7,0-65.5,24.2-66.3,25.3l-1,1.3l-0.1,1.6c-1.6,22,3.5,45.7,15.5,72.5
						c10.5,23.3,26.1,48.6,47.7,77.3l4.1,5.5l4.1-5.5c21.7-28.7,37.3-54,47.7-77.3c12-26.8,17.1-50.5,15.5-72.5l-0.1-1.6l-1-1.3
						C326.9,317.5,307.1,293.3,261.4,293.3L261.4,293.3z"/>
				</g>
				<path class="st13" d="M296.9,321.5c-0.2-3.6-1.3-9.7-5.9-15.1c-5.6-6.7-14.5-10.4-26.5-11.2c-29.1-1.7-37.3,16.6-39.1,22.6
					c-1.6,0.9-3.3,2.3-4.9,4.7c-8.2,12.1,1.3,28.1,1.8,28.8l6.2-3.8c-0.1-0.1-7.5-12.8-2-21c0.7-1,2-2.6,3.2-2.6c1.7,0,4,2.5,5,4.1
					l0.1,0.2l0.2,0.2c0.2,0.2,4.6,5.6,2.1,17l7.1,1.5c3-13.8-2.2-21.4-3.5-23c-0.7-1-3.1-4.5-6.6-6.3c2.4-5.4,9.6-15.6,29.9-14.4
					c9.6,0.6,16.5,3.3,20.6,8.1c3,3.5,3.8,7.4,4,9.9c-4.6,1.7-7.8,6.1-7.8,11.2c0,6.6,5.4,12,12,12c6.6,0,12-5.4,12-12
					C304.8,327.6,301.5,323.2,296.9,321.5z M292.8,337.5c-2.6,0-4.7-2.1-4.7-4.7s2.1-4.7,4.7-4.7c2.6,0,4.7,2.1,4.7,4.7
					S295.4,337.5,292.8,337.5z"/>
			</g>
		</g>
	</g>
	<g class="st1">
		<g>
			<path class="st5" d="M899.4,476.9v-32h7.8l0.8,32H899.4z M921.1,476.9h-6.2l-5-14.2l-5.2-17.8h6l6.1,17.4l1.9,6.9h-0.8l1.9-6.9
				l6.1-17.4h5.7l-5.3,17.9L921.1,476.9z M928,476.9l0.8-32h7.8v32H928z"/>
			<path class="st5" d="M947.1,476.9v-32h8.6v32H947.1z M953.4,451.7v-6.8h17.1v6.8H953.4z M953.4,463.9v-6.6h15.2v6.6H953.4z
				 M953.4,476.9v-6.8h17.1v6.8H953.4z"/>
			<path class="st5" d="M980.1,476.9v-32h8.6v32H980.1z M993,469.9c1.6,0,3-0.4,4.2-1.1c1.2-0.7,2-1.7,2.6-3.1
				c0.6-1.3,0.9-3,0.9-4.8c0-1.9-0.3-3.5-0.9-4.9c-0.6-1.3-1.5-2.4-2.6-3.1c-1.2-0.7-2.6-1.1-4.2-1.1h-6.6v-7h6.6
				c3.4,0,6.3,0.7,8.8,2c2.5,1.3,4.4,3.1,5.7,5.5c1.3,2.4,2,5.2,2,8.6c0,3.3-0.7,6.1-2,8.5c-1.3,2.4-3.3,4.2-5.7,5.5
				c-2.5,1.3-5.4,1.9-8.8,1.9h-6.6v-7H993z"/>
			<path class="st5" d="M1019.1,476.9v-32h8.6v32H1019.1z"/>
			<path class="st5" d="M1067.5,455.5h-9c-0.4-1.5-1-2.6-2-3.3c-1-0.7-2.2-1.1-3.7-1.1c-1.4,0-2.7,0.4-3.7,1.2
				c-1,0.8-1.8,1.9-2.3,3.4c-0.5,1.5-0.8,3.2-0.8,5.3c0,2.1,0.3,3.8,0.8,5.3c0.5,1.5,1.3,2.6,2.3,3.3c1,0.8,2.2,1.2,3.7,1.2
				c1.4,0,2.6-0.4,3.5-1.1c1-0.7,1.7-1.7,2-3.1h9c-0.5,2.4-1.5,4.4-2.8,6.1c-1.4,1.7-3.1,2.9-5.1,3.8c-2,0.8-4.2,1.3-6.5,1.3
				c-3.3,0-6.1-0.7-8.4-2c-2.3-1.4-4.2-3.3-5.5-5.8c-1.3-2.5-1.9-5.5-1.9-9c0-3.5,0.6-6.5,1.9-9c1.3-2.5,3.1-4.5,5.5-5.8
				c2.4-1.4,5.2-2,8.4-2c2.4,0,4.6,0.4,6.6,1.3c2,0.9,3.7,2.1,5.1,3.8C1066.1,450.9,1067,453,1067.5,455.5z"/>
			<path class="st5" d="M1098,476.9l-6.6-19.7l-1.4-5.1h0.8l-1.4,5.1l-6.7,19.7h-8.6l11.4-32h10.2l11.4,32H1098z M1083,471.4v-6.5
				h14.8v6.5H1083z"/>
			<path class="st5" d="M1115.3,476.9v-32h8.6v32H1115.3z M1121.6,476.9v-7h15.7v7H1121.6z"/>
			<path class="st5" d="M1145.8,467.5v-6.9h13.3v6.9H1145.8z"/>
		</g>
	</g>
</g>
<g id="Layer_2">
	<path class="st13" d="M186.7,326.8c8.1,0,14.7,0,21.1,0c0-40.6,0-80.3,0-120.1c-12.3,0-23.7,0-35.3,0
		c-7.1,26.7-14.1,53.1-21.2,79.5c-0.8-0.1-1.7-0.2-2.5-0.3c-7-26.3-14.1-52.6-21.1-78.7c-12.3,0-23.9,0-35.6,0
		c0,40.4,0,79.8,0,119.6c7.2,0,13.7,0,21.4,0c0-30,0-59,0-88.1c0.8-0.1,1.6-0.2,2.4-0.3c7.5,29.5,15,59,22.4,88.2
		c22.4,2.8,22.5,2.9,27.6-17c6.1-23.7,12.1-47.5,18.2-71.2c0.8,0.1,1.7,0.2,2.5,0.2C186.7,267.9,186.7,297.3,186.7,326.8z
		 M349.4,206.4c0,41.1,0,80.8,0,121c18.7,0,36.6,0.7,54.5-0.2c22.1-1.1,36-12.4,42.7-33.5c5.9-18.7,5.4-37.7-0.9-56.1
		c-6.6-19.1-20.4-30.2-40.9-31C386.6,205.9,368.3,206.4,349.4,206.4z M258.8,225.3c22.4,0,43.5,0,64.6,0c0-7,0-12.6,0-18.3
		c-29.8,0-58.9,0-88,0c0,40.5,0,80.2,0,119.8c30.8,0,60.7,0,90.7,0c0-6.4,0-12,0-19.3c-22.7,0-44.9,0-67.3,0c0-11.9,0-22.1,0-33.7
		c20.2,0,39.8,0,60,0c0-7.3,0-13.1,0-20.1c-20.5,0-40.2,0-60,0C258.8,244.1,258.8,235.8,258.8,225.3z M761.8,327.3
		c-13.9-34.5-27.2-67.6-40.5-100.8c-8.3-20.8-8.3-20.8-30.3-20.2c-1.1,0-2.2,0.4-3.8,0.7c-15.4,39.7-30.9,79.6-46.8,120.6
		c7.4,0,13.2,0.6,18.8-0.2c3-0.5,7.8-3.1,8.1-5.3c3-21.4,16.6-25.2,34.9-22.3c3.3,0.5,6.9,0.6,10.3,0c10.1-1.8,16,2.2,17.8,12.2
		c2.4,13.3,10.3,18.2,23.3,15.7C755.8,327.3,758.1,327.4,761.8,327.3z M778,207.9c0,40,0,79.3,0,119c28.4,0,56,0,83.8,0
		c0-6.5,0-12.3,0-19.4c-20.4,0-40.1,0-60.9,0c0-33.8,0-66.4,0-99.6C792.7,207.9,785.6,207.9,778,207.9z M472.4,206.7
		c0,40.8,0,80.4,0,120.1c7.8,0,14.8,0,22,0c0-40.4,0-80.1,0-120.1C486.8,206.7,480,206.7,472.4,206.7z M87.8,150.8
		c-11.4-11.2-24.3-15.6-39.1-11.6c-26.9,7.3-34.7,39.3-13.8,61.4c15,15.8,32.2,29.4,48.3,43.9c8.3-12,7.4-20.8-4.9-29.3
		c-11.3-7.7-23.7-13.7-35-21.4c-14-9.4-16.5-26.5-6.7-40.1c9.5-13.2,27.4-16,40.3-5.5c5.7,4.6,10.1,10.9,15.1,16.5
		c15.6-16.4,25.6-20.4,36.5-12.5c20.6,15.1,7.9,32.2,0.7,49.9c17.8-16.4,21.6-37.9,10-51.3C126.3,135.9,107.4,135.7,87.8,150.8z
		 M1055.1,241.1c0.9-0.8,1.7-1.6,2.6-2.3c-1.4-4.2-2.6-8.5-4.1-12.7c-13-36.5-25.8-73.2-39.3-109.5c-10.6-28.5,0.1-45.8,25.5-46.4
		c2.2-0.1,4.4-3.1,8.8-6.4c-33.9-4-53.4,15.7-44.7,44c13.4,43.2,29.5,85.5,44.7,128.1C1049.4,238.1,1052.9,239.4,1055.1,241.1z
		 M1185.5,233.9c1.2,1,2.5,2.1,3.7,3.1c2.1-2.4,5.1-4.4,6.2-7.1c4.2-10.6,7.9-21.4,11.7-32.2c10.5-30.2,22.3-60,31.1-90.6
		c8.1-28.3-12.8-49-42.1-41.8c3.3,2.8,7.1,4.8,11,5.5c19.5,3.4,28,14.8,23.5,34c-2.4,10.3-6.4,20.3-9.9,30.3
		C1209.1,168.1,1197.3,201,1185.5,233.9z M1051.1,59.6c0,5.1,0,9.2,0,13.7c6.5,1.1,12.4,2,18.4,3c7.8,1.3,11.6-2.3,11.6-9.9
		c0.1-7.6-3.4-11.4-11.4-10C1063.5,57.5,1057.2,58.6,1051.1,59.6z M1191.3,59.5c-6.7-1.1-13.1-2-19.4-3.1
		c-7.2-1.2-10.9,1.9-11.1,9.1c-0.2,7.1,2.1,12,10.5,10.9c6.6-0.9,13.2-2,19.9-3C1191.3,68.6,1191.3,64.8,1191.3,59.5z M577.5,201.9
		c-35.4,0-64,29.4-64,65.8c0,33.6,24.6,61.3,56.2,65.3c2.6,0.3,5.2,0.5,7.8,0.5c2.8,0,5.5-0.2,8.2-0.5c31.5-4.2,55.8-31.8,55.8-65.2
		C641.5,231.3,612.9,201.9,577.5,201.9z M615.9,286.6c-9.2,17.8-28.7,26.7-48.1,22.3c-18.7-4.3-32.8-22.3-32.8-41.7
		c0-18.9,13.4-36.5,31.8-41.4c18.9-5.1,40.3,3,48.3,21.2c5.5,12.5,13.2,12,24.5,9.7c-1.1-4.5-1.7-8.5-3.2-12.2
		c-10.5-27.3-38.8-43.7-67.6-39.2c-30.5,4.8-52.5,28.9-53.9,59.1c-1.4,29,17.8,56,46.1,63c4.7,1.2,7.2,2.9,8.7,5.5
		c2.6,0.3,5.2,0.5,7.8,0.5c2.8,0,5.5-0.2,8.2-0.5c0-0.8-0.1-1.5-0.1-2.3c35.3-11.9,52.3-29.5,52.8-54.4h-17.9
		C619,279.7,617.6,283.2,615.9,286.6z"/>
	<path class="st13" d="M1246.6,506.4c-38.7,29.5-93.4,16.5-115.2-27.6c-12.2-24.7-16.2-51.3-16.3-78.7c0-11.7,0-23.4,0-37.9
		c-16.3,5.6-31.4,8.8-44.6,15.7c-27.9,14.6-55.5,30.1-82.1,46.9c-32.1,20.3-64.1,40.6-103,43.5c-19.6,1.4-39.8,1.1-59-2.3
		c-34.1-6-56.1-29-67.1-60.5c-7.4-21.3-10.5-44.2-14.3-66.6c-0.6-3.4-1.1-6.1-2.3-8.2c2.6,0.3,5.2,0.5,7.8,0.5
		c2.8,0,5.5-0.2,8.2-0.5c1.3,37.5,7.5,73.6,35.3,102.5c15.5,16.1,35.7,20.7,57.2,22.3c42.6,3.1,79.9-11,115.1-33.6
		c27.2-17.5,54.5-35,83-50.1c17.6-9.3,37.4-14.8,56.6-20.8c6.7-2.1,9.5-4.1,9.2-11.2c-0.5-16.7-0.2-33.4-0.2-51
		c-29.4-3.8-52.8-15.6-65.9-44.1c2.1-1,3.7-1.7,5.3-2.3c1.7-0.7,3.5-1.2,5.1-1.8c42.8,49.4,92.5,47.8,122.4-4.3
		c3.5,0.9,7.1,1.7,11.7,2.9c-11.1,29.6-32,45.4-63.3,49v55.6c19.6,2.2,39.1,2.7,57.8,6.9c27.8,6.2,51.5,20.4,69.1,43.6
		C1284,429.4,1279,481.7,1246.6,506.4z"/>
	<path class="st5" d="M566.7,225.7c18.9-5.1,40.3,3,48.3,21.2c5.4,12.2,12.8,12,23.7,9.9c0.3-0.1,0.6-0.1,0.9-0.2
		c-1.1-4.4-1.7-8.5-3.1-12.2c-9-23.4-31.1-38.8-55.3-39.9c-4.1-0.2-8.2,0-12.3,0.7c-30.5,4.8-52.5,28.9-53.9,59.1
		c-1.4,29,17.8,56,46.1,63c2.4,0.6,4.3,1.4,5.7,2.3c3.2,0.5,6.5,0.8,9.8,0.8c4.8,0,9.4-0.5,13.9-1.5c12.5-4.6,22.5-10,30.1-16.3
		c10.6-8.9,16.4-19.5,17.7-32c0.1-1.4,0.2-2.9,0.3-4.3h-17.8c-1.6,3.5-3,7-4.7,10.4c-9.2,17.8-28.7,26.7-48.1,22.3
		c-18.7-4.3-32.8-22.3-32.8-41.7C534.9,248.2,548.4,230.7,566.7,225.7z"/>
	<path class="st5" d="M1258.8,394.2c-17.6-23.1-41.3-37.4-69.1-43.6c-18.7-4.2-38.2-4.7-57.8-6.9v-55.6c31.3-3.6,52.2-19.4,63.3-49
		c-4.7-1.1-8.3-2-11.7-2.9c-30,52-79.7,53.7-122.4,4.3c-1.6,0.6-3.4,1.1-5.1,1.8c-1.6,0.6-3.2,1.4-5.3,2.3
		c13.1,28.5,36.6,40.3,65.9,44.1c0,17.6-0.3,34.3,0.2,51c0.2,7.2-2.6,9.2-9.2,11.2c-19.2,6-39,11.4-56.6,20.8
		c-28.5,15.1-55.9,32.6-83,50.1c-35.2,22.7-72.5,36.7-115.1,33.6c-21.4-1.5-41.7-6.2-57.2-22.2c-28.3-29.4-34.3-66.4-35.4-104.8
		c1.6-0.6,3.2-1.1,4.8-1.7c-4.5,1-9.1,1.5-13.9,1.5c-3.3,0-6.6-0.3-9.8-0.8c3.6,2.4,4.4,6,5.3,11.5c3.7,22.4,6.8,45.3,14.3,66.6
		c11,31.5,33,54.5,67.1,60.5c19.2,3.4,39.5,3.7,59,2.3c38.9-2.9,70.9-23.1,103-43.5c26.6-16.9,54.2-32.4,82.1-46.9
		c13.2-6.9,28.3-10.1,44.6-15.7c0,14.5,0,26.2,0,37.9c0.1,27.3,4.1,53.9,16.3,78.7c21.8,44.1,76.5,57,115.2,27.5
		C1280.5,481.7,1285.5,429.5,1258.8,394.2z M1236.6,496.6c-22.2,16-55.5,14.8-75.1-3.5c-17.3-16.1-23.4-37.8-27.6-60.1
		c-1.4-7.4-2.3-15.1-2.5-22.6c-0.4-16-0.1-31.9-0.1-48.3c48.1-10.8,106,15.5,124.4,55.7C1268.7,446.2,1260.8,479.1,1236.6,496.6z"/>
	<path class="st5" d="M186.7,326.8c0-29.5,0-58.8,0-88.2c-0.8-0.1-1.7-0.2-2.5-0.2c-6,23.7-12,47.5-18.2,71.2
		c-5.1,19.8-5.2,19.8-27.6,17c-7.4-29.2-14.9-58.7-22.4-88.2c-0.8,0.1-1.6,0.2-2.4,0.3c0,29,0,58.1,0,88.1c-7.7,0-14.2,0-21.4,0
		c0-39.7,0-79.2,0-119.6c11.7,0,23.2,0,35.6,0c7,26.1,14,52.4,21.1,78.7c0.8,0.1,1.7,0.2,2.5,0.3c7-26.4,14.1-52.8,21.2-79.5
		c11.6,0,23,0,35.3,0c0,39.8,0,79.5,0,120.1C201.4,326.8,194.8,326.8,186.7,326.8z"/>
	<path class="st5" d="M349.4,206.4c18.9,0,37.1-0.6,55.3,0.2c20.5,0.8,34.3,11.9,40.9,31c6.3,18.4,6.8,37.4,0.9,56.1
		c-6.6,21.1-20.5,32.4-42.7,33.5c-17.8,0.9-35.7,0.2-54.5,0.2C349.4,287.3,349.4,247.5,349.4,206.4z M373,307.8
		c17.2-1.7,35.3,6.2,47-11.3c9-13.4,8.1-48.8-1.3-60.2c-12.5-15.1-29.5-9.2-45.7-10.4C373,253.6,373,279.7,373,307.8z"/>
	<path class="st5" d="M258.8,225.3c0,10.5,0,18.8,0,28.3c19.9,0,39.5,0,60,0c0,7.1,0,12.8,0,20.1c-20.2,0-39.8,0-60,0
		c0,11.6,0,21.8,0,33.7c22.4,0,44.6,0,67.3,0c0,7.3,0,12.8,0,19.3c-30,0-59.9,0-90.7,0c0-39.6,0-79.3,0-119.8c29.1,0,58.2,0,88,0
		c0,5.8,0,11.3,0,18.3C302.2,225.3,281.2,225.3,258.8,225.3z"/>
	<path class="st5" d="M761.8,327.3c-3.7,0.2-6.1,0-8.3,0.4c-13,2.4-21-2.4-23.3-15.7c-1.8-10-7.7-13.9-17.8-12.2
		c-3.3,0.6-6.9,0.5-10.3,0c-18.3-2.9-31.9,0.9-34.9,22.3c-0.3,2.2-5.1,4.9-8.1,5.3c-5.6,0.9-11.3,0.2-18.8,0.2
		c15.9-41,31.4-80.9,46.8-120.6c1.6-0.3,2.7-0.7,3.8-0.7c22-0.6,22-0.6,30.3,20.2C734.7,259.6,748,292.8,761.8,327.3z M701.6,236.7
		c-0.9,0-1.8,0-2.7,0c-5,13.9-10.1,27.8-15.5,42.7c12,0,22.2,0,34.3,0C712.1,264.4,706.8,250.5,701.6,236.7z"/>
	<path class="st5" d="M778,207.9c7.6,0,14.7,0,22.9,0c0,33.2,0,65.7,0,99.6c20.8,0,40.4,0,60.9,0c0,7.1,0,12.9,0,19.4
		c-27.8,0-55.4,0-83.8,0C778,287.3,778,247.9,778,207.9z"/>
	<path class="st5" d="M472.4,206.7c7.6,0,14.4,0,22,0c0,40.1,0,79.7,0,120.1c-7.1,0-14.1,0-22,0
		C472.4,287.1,472.4,247.5,472.4,206.7z"/>
	<path class="st14" d="M87.8,150.8c19.7-15.1,38.6-14.9,51.5,0c11.6,13.4,7.8,34.9-10,51.3c7.1-17.7,19.8-34.8-0.7-49.9
		c-10.9-8-20.9-4-36.5,12.5c-5-5.5-9.4-11.8-15.1-16.5c-12.9-10.5-30.8-7.7-40.3,5.5c-9.8,13.6-7.3,30.7,6.7,40.1
		c11.3,7.6,23.8,13.6,35,21.4c12.4,8.5,13.2,17.4,4.9,29.3c-16.2-14.5-33.4-28.1-48.3-43.9c-20.9-22-13.2-54.1,13.8-61.4
		C63.5,135.1,76.4,139.6,87.8,150.8z"/>
	<path class="st4" d="M1056.7,241.1c-2.2-1.7-5.7-3-6.5-5.3c-15.2-42.6-31.3-84.9-44.7-128.1c-8.8-28.3,10.8-48.1,44.7-44
		c-4.4,3.3-6.6,6.4-8.8,6.4c-25.4,0.6-36.1,17.9-25.5,46.4c13.5,36.4,26.3,73,39.3,109.5c1.5,4.2,2.7,8.5,4.1,12.7
		C1058.4,239.6,1057.5,240.4,1056.7,241.1z"/>
	<path class="st4" d="M1187.1,233.9c11.8-32.9,23.6-65.8,35.2-98.8c3.6-10,7.5-20,9.9-30.3c4.4-19.1-4.1-30.6-23.5-34
		c-4-0.7-7.7-2.7-11-5.5c29.3-7.2,50.2,13.4,42.1,41.8c-8.8,30.7-20.6,60.5-31.1,90.6c-3.8,10.8-7.5,21.6-11.7,32.2
		c-1.1,2.8-4.1,4.8-6.2,7.1C1189.6,236,1188.3,235,1187.1,233.9z"/>
	<path class="st5" d="M1052.6,59.6c6.1-1.1,12.4-2.1,18.7-3.2c8-1.4,11.4,2.4,11.4,10c-0.1,7.7-3.8,11.2-11.6,9.9
		c-6-1-11.9-1.9-18.4-3C1052.6,68.8,1052.6,64.7,1052.6,59.6z"/>
	<path class="st5" d="M1192.8,59.5c0,5.4,0,9.1,0,13.9c-6.7,1-13.3,2.1-19.9,3c-8.4,1.2-10.7-3.7-10.5-10.9
		c0.2-7.2,3.9-10.3,11.1-9.1C1179.8,57.4,1186.1,58.4,1192.8,59.5z"/>
	<path class="st15" d="M997.4,357.1c43.5-9.8,95.9,14,112.5,50.4c11.8,25.8,4.6,55.6-17.2,71.4c-20.1,14.5-50.2,13.4-68-3.2
		c-15.7-14.6-21.2-34.2-25-54.3c-1.3-6.7-2.1-13.6-2.2-20.5C997.2,386.4,997.4,371.9,997.4,357.1z"/>
	<path class="st13" d="M373,307.8c0-28.1,0-54.2,0-81.9c16.2,1.1,33.2-4.7,45.7,10.4c9.5,11.4,10.3,46.8,1.3,60.2
		C408.3,314,390.2,306.1,373,307.8z"/>
	<g class="st0">
		<path class="st16" d="M1047.8,110.8c0,19.8-0.4,38.5,0.2,57.3c0.2,8.1-2.9,10.3-10.4,12.6c-21.6,6.7-43.8,12.8-63.6,23.3
			c-32.1,17-62.8,36.6-93.3,56.3c-39.5,25.5-81.5,41.2-129.3,37.8c-24.1-1.7-46.9-6.9-64.2-25c-31.9-33.1-38.5-74.6-39.8-117.8
			c39.7-13.4,58.8-33.1,59.3-61.1c-6.6,0-13.2,0-20.1,0c-1.8,3.9-3.3,7.9-5.3,11.7c-10.4,20-32.3,30-54.1,25
			c-21-4.8-36.9-25-36.9-46.9c0-21.3,15.1-41,35.7-46.5c21.2-5.7,45.3,3.4,54.3,23.8c6.2,14.1,14.8,13.5,27.6,10.9
			c-1.3-5-1.9-9.6-3.5-13.8c-11.8-30.7-43.7-49.1-75.9-44c-34.3,5.4-59,32.5-60.6,66.4c-1.5,32.6,20,62.9,51.8,70.9
			c9.6,2.4,10.9,6.8,12.4,15.5c4.2,25.2,7.7,50.9,16,74.8c12.4,35.4,37,61.3,75.4,68c21.6,3.8,44.4,4.2,66.3,2.6
			c43.7-3.2,79.7-26,115.7-48.8c29.9-19,60.9-36.4,92.3-52.8c14.8-7.7,31.8-11.3,50.1-17.6c0,16.3,0,29.4,0,42.6
			c0.1,30.7,4.6,60.6,18.3,88.4c24.5,49.5,86,64.1,129.5,31c36.4-27.8,42.1-86.5,12-126.1c-19.7-26-46.4-42-77.6-49
			c-21-4.7-42.9-5.2-64.9-7.7c0-19.9,0-40.9,0-62.5c35.1-4,58.7-21.8,71.1-55.1c-5.2-1.3-9.3-2.3-13.2-3.2
			c-33.7,58.5-89.5,60.3-137.6,4.8c-1.8,0.6-3.8,1.2-5.8,2c-1.8,0.7-3.6,1.6-6,2.6C988.4,93.3,1014.8,106.6,1047.8,110.8z
			 M198.9,151.2c9.1,0,16.5,0,23.7,0c0-45.6,0-90.3,0-135c-13.9,0-26.6,0-39.7,0c-8,30-15.9,59.7-23.8,89.3
			c-0.9-0.1-1.9-0.2-2.8-0.3c-7.9-29.6-15.8-59.1-23.7-88.5c-13.9,0-26.9,0-40,0c0,45.4,0,89.7,0,134.4c8.1,0,15.4,0,24,0
			c0-33.7,0-66.3,0-99c0.9-0.1,1.8-0.2,2.7-0.4c8.4,33.2,16.9,66.3,25.2,99.1c25.2,3.2,25.3,3.2,31-19.1
			c6.9-26.7,13.6-53.4,20.4-80.1c0.9,0.1,1.9,0.2,2.8,0.3C198.9,85,198.9,118,198.9,151.2z M381.8,15.9c0,46.2,0,90.9,0,136
			c21.1,0,41.2,0.8,61.2-0.2c24.8-1.2,40.5-13.9,47.9-37.6c6.6-21,6.1-42.4-1-63.1C482.6,29.5,467,17,444,16.1
			C423.5,15.3,403,15.9,381.8,15.9z M279.9,37.2c25.1,0,48.8,0,72.6,0c0-7.9,0-14.1,0-20.6c-33.5,0-66.2,0-98.9,0
			c0,45.5,0,90.2,0,134.6c34.7,0,68.2,0,102,0c0-7.2,0-13.5,0-21.6c-25.5,0-50.4,0-75.6,0c0-13.4,0-24.8,0-37.9
			c22.7,0,44.7,0,67.4,0c0-8.2,0-14.7,0-22.6c-23.1,0-45.1,0-67.5,0C279.9,58.3,279.9,49,279.9,37.2z M845.3,151.7
			c-15.6-38.8-30.5-76-45.5-113.2c-9.4-23.3-9.3-23.4-34.1-22.7c-1.3,0-2.5,0.5-4.3,0.8c-17.3,44.6-34.7,89.4-52.6,135.5
			c8.3,0,14.8,0.7,21.1-0.3c3.4-0.5,8.7-3.5,9.1-6c3.4-24.1,18.7-28.3,39.3-25c3.8,0.6,7.8,0.6,11.5,0c11.3-2,18,2.4,20,13.7
			c2.7,15,11.6,20.4,26.2,17.7C838.5,151.7,841.1,151.9,845.3,151.7z M863.4,17.6c0,45,0,89.2,0,133.7c32,0,63,0,94.2,0
			c0-7.3,0-13.9,0-21.8c-23,0-45,0-68.4,0c0-38,0-74.6,0-111.9C879.9,17.6,872,17.6,863.4,17.6z M520,16.2c0,45.9,0,90.4,0,135
			c8.8,0,16.7,0,24.7,0c0-45.5,0-90,0-135C536.2,16.2,528.6,16.2,520,16.2z M719.4-70.2c-12.8-12.6-27.3-17.6-44-13.1
			c-30.3,8.2-38.9,44.2-15.5,69c16.8,17.7,36.2,33,54.3,49.4c9.3-13.4,8.4-23.4-5.5-32.9c-12.6-8.7-26.6-15.5-39.4-24
			c-15.7-10.6-18.5-29.7-7.5-45c10.7-14.8,30.8-18,45.3-6.2c6.4,5.2,11.4,12.3,17,18.5c17.5-18.5,28.8-22.9,41-14
			c23.1,17,8.8,36.2,0.8,56.1c20-18.5,24.3-42.7,11.3-57.7C762.7-86.9,741.5-87.2,719.4-70.2z M979.8,54.9c1-0.9,1.9-1.8,2.9-2.6
			c-1.5-4.8-2.9-9.6-4.6-14.3c-14.7-41.1-29-82.2-44.2-123.1c-11.9-32,0.1-51.4,28.6-52.1c2.5-0.1,5-3.5,9.9-7.2
			c-38-4.5-60.1,17.7-50.2,49.5c15.1,48.5,33.1,96.1,50.3,144C973.5,51.5,977.3,53,979.8,54.9z M1126.4,46.8
			c1.4,1.2,2.8,2.4,4.2,3.5c2.4-2.6,5.7-4.9,6.9-8c4.8-11.9,8.9-24.1,13.2-36.2c11.8-33.9,25.1-67.4,35-101.9
			c9.1-31.8-14.4-55-47.3-46.9c3.7,3.2,7.9,5.4,12.4,6.2c21.9,3.8,31.4,16.7,26.5,38.2c-2.7,11.6-7.2,22.8-11.2,34.1
			C1152.9-27.1,1139.7,9.9,1126.4,46.8z M975.3-149.1c0,5.7,0,10.3,0,15.4c7.3,1.2,14,2.3,20.7,3.4c8.8,1.5,13-2.5,13.1-11.1
			c0.1-8.5-3.8-12.8-12.8-11.3C989.3-151.5,982.2-150.3,975.3-149.1z M1132.9-149.2c-7.6-1.2-14.7-2.3-21.8-3.4
			c-8-1.3-12.2,2.2-12.4,10.2c-0.2,8,2.4,13.5,11.8,12.2c7.4-1,14.9-2.2,22.4-3.4C1132.9-139,1132.9-143.2,1132.9-149.2z"/>
		<path class="st17" d="M1047.8,110.8c-33-4.2-59.3-17.5-74.1-49.6c2.4-1.1,4.2-1.9,6-2.6c1.9-0.8,4-1.4,5.8-2
			c48.1,55.6,103.9,53.7,137.6-4.8c3.9,1,7.9,1.9,13.2,3.2c-12.4,33.3-36,51.1-71.1,55.1c0,21.6,0,42.7,0,62.5c22,2.5,44,3,64.9,7.7
			c31.2,7,57.9,23,77.6,49c30.1,39.6,24.4,98.4-12,126.1c-43.5,33.1-105,18.6-129.5-31c-13.7-27.8-18.2-57.7-18.3-88.4
			c-0.1-13.1,0-26.3,0-42.6c-18.3,6.3-35.3,9.9-50.1,17.6c-31.4,16.4-62.4,33.8-92.3,52.8c-36,22.9-72,45.6-115.7,48.8
			c-22,1.6-44.7,1.2-66.3-2.6c-38.3-6.8-63-32.6-75.4-68c-8.4-23.9-11.8-49.7-16-74.8c-1.4-8.6-2.8-13.1-12.4-15.5
			c-31.9-7.9-53.4-38.2-51.8-70.9c1.6-33.9,26.3-61.1,60.6-66.4c32.3-5.1,64.1,13.3,75.9,44c1.6,4.2,2.3,8.8,3.5,13.8
			c-12.7,2.5-21.4,3.2-27.6-10.9c-9-20.4-33-29.5-54.3-23.8c-20.6,5.6-35.7,25.3-35.7,46.5c0,21.8,15.9,42,36.9,46.9
			c21.8,5,43.7-5.1,54.1-25c2-3.8,3.5-7.7,5.3-11.7c6.8,0,13.4,0,20.1,0c-0.5,28-19.6,47.7-59.3,61.1c1.3,43.1,7.9,84.7,39.8,117.8
			c17.4,18.1,40.2,23.3,64.2,25c47.9,3.4,89.8-12.3,129.3-37.8c30.5-19.7,61.2-39.3,93.3-56.3c19.8-10.5,42-16.6,63.6-23.3
			c7.5-2.3,10.6-4.6,10.4-12.6C1047.4,149.4,1047.8,130.6,1047.8,110.8z M1064.3,193.3c0,18.4-0.3,36.4,0.1,54.3
			c0.2,8.5,1.2,17.1,2.8,25.5c4.7,25,11.6,49.4,31.1,67.5c22.1,20.6,59.5,22,84.5,4c27.1-19.6,36.1-56.6,21.4-88.6
			C1183.4,210.7,1118.4,181.2,1064.3,193.3z"/>
		<path class="st17" d="M198.9,151.2c0-33.2,0-66.1,0-99.1c-0.9-0.1-1.9-0.2-2.8-0.3c-6.8,26.7-13.5,53.4-20.4,80.1
			c-5.8,22.3-5.8,22.3-31,19.1c-8.3-32.8-16.8-66-25.2-99.1c-0.9,0.1-1.8,0.2-2.7,0.4c0,32.6,0,65.2,0,99c-8.6,0-16,0-24,0
			c0-44.7,0-89,0-134.4c13.1,0,26.1,0,40,0c7.9,29.4,15.8,58.9,23.7,88.5c0.9,0.1,1.9,0.2,2.8,0.3c7.9-29.6,15.8-59.3,23.8-89.3
			c13,0,25.8,0,39.7,0c0,44.7,0,89.4,0,135C215.4,151.2,208,151.2,198.9,151.2z"/>
		<path class="st17" d="M381.8,15.9c21.2,0,41.7-0.6,62.2,0.2c23,0.9,38.6,13.4,45.9,34.9c7.1,20.7,7.6,42.1,1,63.1
			c-7.5,23.7-23.1,36.4-47.9,37.6c-20,1-40.2,0.2-61.2,0.2C381.8,106.8,381.8,62.1,381.8,15.9z M408.3,129.9
			c19.3-1.9,39.7,7,52.9-12.7c10.1-15.1,9.1-54.8-1.5-67.6c-14-16.9-33.2-10.4-51.4-11.7C408.3,69,408.3,98.3,408.3,129.9z"/>
		<path class="st17" d="M279.9,37.2c0,11.8,0,21.1,0,31.9c22.4,0,44.4,0,67.5,0c0,7.9,0,14.4,0,22.6c-22.7,0-44.8,0-67.4,0
			c0,13.1,0,24.5,0,37.9c25.2,0,50.1,0,75.6,0c0,8.2,0,14.4,0,21.6c-33.7,0-67.3,0-102,0c0-44.5,0-89.1,0-134.6
			c32.7,0,65.4,0,98.9,0c0,6.5,0,12.7,0,20.6C328.8,37.2,305.1,37.2,279.9,37.2z"/>
		<path class="st17" d="M845.3,151.7c-4.2,0.2-6.8,0-9.3,0.5c-14.6,2.7-23.6-2.7-26.2-17.7c-2-11.3-8.7-15.7-20-13.7
			c-3.7,0.7-7.8,0.6-11.5,0c-20.5-3.3-35.8,1-39.3,25c-0.3,2.5-5.7,5.5-9.1,6c-6.2,1-12.7,0.3-21.1,0.3
			c17.9-46.1,35.3-90.9,52.6-135.5c1.8-0.4,3.1-0.8,4.3-0.8c24.8-0.7,24.7-0.7,34.1,22.7C814.8,75.7,829.7,113,845.3,151.7z
			 M777.6,49.9c-1,0-2,0-3,0c-5.7,15.6-11.3,31.3-17.4,48c13.5,0,24.9,0,38.6,0C789.4,81.1,783.5,65.5,777.6,49.9z"/>
		<path class="st17" d="M863.4,17.6c8.6,0,16.5,0,25.8,0c0,37.3,0,73.9,0,111.9c23.4,0,45.4,0,68.4,0c0,8,0,14.5,0,21.8
			c-31.2,0-62.2,0-94.2,0C863.4,106.8,863.4,62.6,863.4,17.6z"/>
		<path class="st17" d="M520,16.2c8.6,0,16.1,0,24.7,0c0,45,0,89.6,0,135c-8,0-15.9,0-24.7,0C520,106.6,520,62.1,520,16.2z"/>
		<path class="st18" d="M719.4-70.2c22.1-17,43.4-16.7,57.8,0c13,15.1,8.8,39.2-11.3,57.7c8-19.9,22.3-39.1-0.8-56.1
			c-12.2-8.9-23.5-4.5-41,14c-5.6-6.2-10.5-13.3-17-18.5c-14.5-11.8-34.6-8.7-45.3,6.2c-11,15.3-8.2,34.5,7.5,45
			c12.7,8.6,26.7,15.3,39.4,24c13.9,9.6,14.8,19.5,5.5,32.9c-18.2-16.3-37.5-31.6-54.3-49.4c-23.5-24.8-14.8-60.8,15.5-69
			C692.1-87.8,706.6-82.8,719.4-70.2z"/>
		<path class="st18" d="M979.8,54.9c-2.5-2-6.4-3.4-7.3-5.9c-17.1-47.9-35.2-95.5-50.3-144c-9.9-31.8,12.2-54,50.2-49.5
			c-4.9,3.7-7.4,7.2-9.9,7.2c-28.6,0.7-40.5,20.1-28.6,52.1c15.2,40.9,29.5,82,44.2,123.1c1.7,4.7,3.1,9.5,4.6,14.3
			C981.8,53.2,980.8,54.1,979.8,54.9z"/>
		<path class="st18" d="M1126.4,46.8c13.2-37,26.5-74,39.6-111c4-11.3,8.5-22.5,11.2-34.1c5-21.5-4.6-34.4-26.5-38.2
			c-4.5-0.8-8.7-3-12.4-6.2c33-8.1,56.5,15.1,47.3,46.9c-9.9,34.5-23.1,68-35,101.9c-4.2,12.1-8.4,24.3-13.2,36.2
			c-1.2,3.1-4.6,5.4-6.9,8C1129.2,49.2,1127.8,48,1126.4,46.8z"/>
		<path class="st17" d="M975.3-149.1c6.9-1.2,13.9-2.4,21-3.6c8.9-1.5,12.8,2.7,12.8,11.3c-0.1,8.6-4.3,12.6-13.1,11.1
			c-6.7-1.1-13.4-2.2-20.7-3.4C975.3-138.8,975.3-143.3,975.3-149.1z"/>
		<path class="st17" d="M1132.9-149.2c0,6,0,10.2,0,15.6c-7.5,1.1-15,2.3-22.4,3.4c-9.4,1.3-12-4.2-11.8-12.2
			c0.2-8.1,4.4-11.5,12.4-10.2C1118.2-151.5,1125.3-150.4,1132.9-149.2z"/>
		<path class="st16" d="M1064.3,193.3c54.1-12.1,119.1,17.4,139.8,62.6c14.7,32,5.8,69-21.4,88.6c-24.9,18-62.3,16.6-84.5-4
			c-19.5-18.1-26.3-42.5-31.1-67.5c-1.6-8.4-2.6-16.9-2.8-25.5C1064,229.7,1064.3,211.7,1064.3,193.3z"/>
		<path class="st16" d="M408.3,129.9c0-31.6,0-60.9,0-92c18.2,1.3,37.4-5.3,51.4,11.7c10.6,12.8,11.6,52.6,1.5,67.6
			C448,136.8,427.6,128,408.3,129.9z"/>
	</g>
	<path class="st5" d="M891.5,206.7c7.6,0,14.4,0,22,0c0,40.1,0,79.7,0,120.1c-7.1,0-14.1,0-22,0
		C891.5,287.1,891.5,247.5,891.5,206.7z"/>
	<rect x="857.8" y="206.7" class="st5" width="89.5" height="22"/>
	<g>
		<path class="st4" d="M92.5,380.5v-4.3h15.3v4.3H92.5z M96.3,395.6v-25.8h5.6v25.5c0,1.6,0.3,2.8,1,3.5c0.6,0.8,1.9,1.1,3.8,1.1
			h1.1v4.1c-0.3,0.2-0.7,0.3-1.4,0.4c-0.6,0.1-1.3,0.1-2.1,0.1c-2.7,0-4.7-0.7-6-2.2C96.9,400.8,96.3,398.6,96.3,395.6z"/>
		<path class="st4" d="M121.4,403.9v-37.4h5.6v37.4H121.4z M126.9,387.6h-2.2c0.2-2.7,0.7-5,1.6-6.8c0.9-1.8,2.1-3.2,3.7-4.1
			c1.5-0.9,3.3-1.4,5.2-1.4c1.9,0,3.6,0.4,5,1.1c1.4,0.7,2.5,1.9,3.2,3.3c0.8,1.5,1.1,3.3,1.1,5.5v18.5h-5.5v-17.4
			c0-1.4-0.2-2.5-0.6-3.5c-0.4-1-1-1.7-1.8-2.2c-0.8-0.5-1.8-0.8-3.1-0.8c-1,0-2,0.2-2.8,0.6c-0.8,0.4-1.5,1-2.1,1.7
			c-0.6,0.7-1,1.5-1.3,2.4C127.1,385.7,126.9,386.6,126.9,387.6z"/>
		<path class="st4" d="M182.7,387.3l-3.2,2.6c0-3.2-0.6-5.6-1.9-7.3c-1.2-1.7-3-2.5-5.4-2.5c-2.4,0-4.1,0.9-5.4,2.6
			c-1.2,1.7-1.8,4.2-1.8,7.4c0,3.2,0.6,5.6,1.9,7.3c1.3,1.7,3.1,2.6,5.5,2.6c1.8,0,3.2-0.4,4.4-1.2s2-2.1,2.5-3.8h5.8
			c-0.8,3.2-2.3,5.6-4.5,7.3c-2.3,1.6-5,2.4-8.2,2.4c-2.7,0-5-0.6-7-1.7c-2-1.2-3.5-2.8-4.5-5c-1.1-2.2-1.6-4.8-1.6-7.7
			c0-3.2,0.5-5.8,1.6-8c1.1-2.2,2.6-3.8,4.5-4.9c1.9-1.1,4.2-1.7,6.8-1.7c2.7,0,5,0.6,6.9,1.7c1.9,1.2,3.4,2.8,4.4,4.9
			c1,2.1,1.6,4.7,1.6,7.6v1.4h-23.4v-3.8H182.7z"/>
		<path class="st4" d="M209.6,403.9v-27.7h5.6v27.7H209.6z M215.1,387.6h-2.2c0.2-2.7,0.7-5,1.6-6.8c0.9-1.8,2-3.2,3.5-4.1
			c1.5-0.9,3.1-1.4,4.9-1.4c1.8,0,3.4,0.4,4.6,1.1c1.3,0.7,2.3,1.9,3,3.3c0.7,1.5,1.1,3.3,1.1,5.5v18.5h-5.6v-17.4
			c0-1.4-0.2-2.5-0.5-3.5c-0.3-1-0.9-1.7-1.6-2.2c-0.7-0.5-1.7-0.8-2.8-0.8c-0.9,0-1.8,0.2-2.5,0.6c-0.7,0.4-1.4,1-1.9,1.7
			c-0.5,0.7-0.9,1.5-1.2,2.4C215.2,385.7,215.1,386.6,215.1,387.6z M231.6,387.6h-2.9c0.2-2.7,0.7-5,1.6-6.8
			c0.9-1.8,2.1-3.2,3.6-4.1c1.5-0.9,3.2-1.4,5.2-1.4c1.8,0,3.4,0.4,4.8,1.1c1.4,0.7,2.4,1.9,3.1,3.3c0.7,1.5,1.1,3.3,1.1,5.5v18.5
			h-5.6v-17.4c0-1.4-0.2-2.5-0.5-3.5c-0.3-1-0.9-1.7-1.6-2.2c-0.7-0.5-1.7-0.8-2.8-0.8c-0.9,0-1.8,0.2-2.5,0.6
			c-0.7,0.4-1.4,1-1.9,1.7c-0.5,0.7-0.9,1.5-1.2,2.4C231.8,385.7,231.6,386.6,231.6,387.6z"/>
		<path class="st4" d="M286.2,387.3l-3.2,2.6c0-3.2-0.6-5.6-1.9-7.3c-1.2-1.7-3-2.5-5.4-2.5c-2.4,0-4.1,0.9-5.4,2.6
			c-1.2,1.7-1.8,4.2-1.8,7.4c0,3.2,0.6,5.6,1.9,7.3c1.3,1.7,3.1,2.6,5.5,2.6c1.8,0,3.2-0.4,4.4-1.2s2-2.1,2.5-3.8h5.8
			c-0.8,3.2-2.3,5.6-4.5,7.3c-2.3,1.6-5,2.4-8.2,2.4c-2.7,0-5-0.6-7-1.7c-2-1.2-3.5-2.8-4.5-5c-1.1-2.2-1.6-4.8-1.6-7.7
			c0-3.2,0.5-5.8,1.6-8c1.1-2.2,2.6-3.8,4.5-4.9c1.9-1.1,4.2-1.7,6.8-1.7c2.7,0,5,0.6,6.9,1.7c1.9,1.2,3.4,2.8,4.4,4.9
			c1,2.1,1.6,4.7,1.6,7.6v1.4h-23.4v-3.8H286.2z"/>
		<path class="st4" d="M314,404.5c-2.4,0-4.5-0.6-6.3-1.7c-1.8-1.2-3.1-2.8-4.1-5c-0.9-2.2-1.4-4.8-1.4-7.7c0-4.7,1.1-8.3,3.2-10.8
			c2.1-2.5,5-3.8,8.6-3.8c3.1,0,5.6,1.2,7.5,3.7c1.9,2.5,2.8,6.1,2.8,10.9c0,3-0.4,5.6-1.2,7.7c-0.8,2.2-2,3.8-3.6,5
			C317.9,404,316.1,404.5,314,404.5z M314.8,399.9c2.2,0,3.9-0.8,5.1-2.5c1.2-1.7,1.7-4.1,1.7-7.3c0-3.2-0.6-5.6-1.8-7.4
			s-2.9-2.6-5-2.6c-2.2,0-3.9,0.8-5.1,2.5c-1.2,1.7-1.7,4.2-1.7,7.4c0,3.2,0.6,5.6,1.8,7.3C310.9,399,312.6,399.9,314.8,399.9z
			 M321.6,403.9v-37.4h5.6v37.4H321.6z"/>
		<path class="st4" d="M343.2,372.7v-6.3h5.6v6.3H343.2z M343.2,403.9v-27.7h5.6v27.7H343.2z"/>
		<path class="st4" d="M388.3,385.8h-5.6c-0.3-2-1.1-3.4-2.3-4.3c-1.2-0.9-2.6-1.4-4.2-1.4c-2.3,0-4.1,0.8-5.3,2.5
			c-1.2,1.7-1.8,4.2-1.8,7.4c0,3.2,0.6,5.6,1.9,7.3c1.3,1.7,3.1,2.6,5.4,2.6c1.7,0,3.1-0.5,4.2-1.4s1.9-2.2,2.3-4h5.5
			c-0.6,3.5-2,6-4.2,7.6c-2.2,1.6-4.8,2.4-7.9,2.4c-2.7,0-5-0.6-6.9-1.7c-1.9-1.2-3.4-2.8-4.4-5c-1-2.2-1.6-4.8-1.6-7.7
			c0-3.2,0.5-5.8,1.6-8c1-2.2,2.5-3.8,4.4-4.9c1.9-1.1,4.2-1.7,6.8-1.7c2.1,0,4,0.4,5.7,1.2c1.7,0.8,3.1,1.9,4.2,3.5
			C387.3,381.6,388,383.5,388.3,385.8z"/>
		<path class="st4" d="M421.3,387v3.8c-2.8,0-5.2,0.1-7,0.4c-1.8,0.3-3.2,0.7-4.2,1.2c-1,0.5-1.7,1.1-2.1,1.8
			c-0.4,0.7-0.6,1.4-0.6,2.3c0,1.2,0.4,2.1,1.4,2.8c0.9,0.7,2.1,1,3.5,1c1.6,0,3-0.4,4.2-1.1c1.2-0.7,2.2-1.7,2.9-3
			c0.7-1.2,1.1-2.6,1.1-4.1h2.5c-0.1,2.2-0.6,4.1-1.3,5.7c-0.7,1.6-1.7,2.9-2.8,3.9c-1.1,1-2.3,1.7-3.7,2.2
			c-1.3,0.5-2.6,0.7-3.9,0.7c-1.9,0-3.5-0.3-4.9-0.9c-1.4-0.6-2.5-1.5-3.3-2.6c-0.8-1.2-1.2-2.6-1.2-4.4c0-1.9,0.5-3.5,1.6-4.9
			s2.6-2.4,4.7-3.1c1.9-0.7,3.9-1.1,6-1.3C416.2,387.1,418.6,387,421.3,387z M408.3,385.2h-5.6c0.3-2,1-3.8,2-5.2
			c1-1.5,2.4-2.6,4.1-3.4c1.7-0.8,3.7-1.2,6-1.2c2.5,0,4.6,0.5,6.3,1.4c1.7,0.9,2.9,2.2,3.8,3.8c0.8,1.6,1.2,3.5,1.2,5.7v10.8
			c0,1.7,0.1,3,0.2,4.1s0.4,1.9,0.7,2.7h-5.8c-0.3-0.7-0.5-1.6-0.6-2.6c-0.1-1-0.1-2.1-0.1-3.2v-11.7c0-2-0.5-3.5-1.5-4.6
			c-1-1.1-2.5-1.6-4.6-1.6c-1.8,0-3.2,0.5-4.2,1.4C409.2,382.4,408.6,383.7,408.3,385.2z"/>
		<path class="st4" d="M442.4,403.9v-37.4h5.6v37.4H442.4z"/>
		<path class="st4" d="M477.9,383.5c0,1,0.3,1.8,0.9,2.3c0.6,0.5,1.5,1,2.5,1.2c1.1,0.3,2.2,0.5,3.5,0.7c1.3,0.2,2.5,0.4,3.8,0.7
			c1.2,0.3,2.4,0.7,3.5,1.2c1.1,0.5,1.9,1.3,2.5,2.3c0.6,1,1,2.3,1,3.9c0,1.7-0.5,3.3-1.5,4.6c-1,1.3-2.3,2.3-4,3
			c-1.7,0.7-3.7,1.1-5.9,1.1c-3.3,0-6.1-0.8-8.3-2.4c-2.2-1.6-3.6-4-4.1-7.4h5.6c0.3,1.7,1,3.1,2.3,4c1.2,0.9,2.8,1.4,4.8,1.4
			c1.9,0,3.3-0.4,4.3-1.1c1-0.8,1.5-1.7,1.5-2.9c0-1-0.3-1.7-0.9-2.3c-0.6-0.6-1.5-1-2.5-1.2c-1.1-0.3-2.2-0.5-3.5-0.7
			c-1.2-0.2-2.5-0.5-3.7-0.8c-1.2-0.3-2.4-0.7-3.4-1.3c-1-0.6-1.9-1.3-2.5-2.3c-0.6-1-0.9-2.3-0.9-3.9c0-1.5,0.4-2.8,1.1-4.1
			c0.7-1.3,1.9-2.3,3.4-3.1c1.5-0.8,3.5-1.2,5.8-1.2c2.1,0,3.9,0.3,5.6,1c1.6,0.7,3,1.7,4.1,3.2c1.1,1.4,1.7,3.3,2,5.6h-5.6
			c-0.3-1.9-1-3.3-2.1-4.1c-1.1-0.8-2.5-1.2-4.3-1.2c-1.5,0-2.7,0.3-3.6,1C478.3,381.6,477.9,382.4,477.9,383.5z"/>
		<path class="st4" d="M521.7,404.5c-2.7,0-5-0.6-6.9-1.7c-1.9-1.2-3.4-2.8-4.5-5c-1-2.2-1.6-4.8-1.6-7.7c0-3.2,0.5-5.8,1.6-8
			c1.1-2.2,2.6-3.8,4.5-4.9c2-1.1,4.2-1.7,6.8-1.7c2.7,0,5,0.6,7,1.8c1.9,1.2,3.4,2.8,4.4,5c1,2.2,1.5,4.8,1.5,7.8
			c0,3.1-0.5,5.7-1.6,7.9c-1,2.2-2.5,3.8-4.5,4.9C526.6,404,524.3,404.5,521.7,404.5z M521.7,399.9c2.4,0,4.2-0.8,5.4-2.5
			c1.2-1.7,1.9-4.1,1.9-7.3c0-3.2-0.6-5.6-1.9-7.4c-1.2-1.7-3-2.6-5.4-2.6c-2.4,0-4.2,0.8-5.4,2.5c-1.2,1.7-1.9,4.2-1.9,7.4
			c0,3.2,0.6,5.6,1.9,7.3C517.5,399,519.3,399.9,521.7,399.9z"/>
		<path class="st4" d="M549.4,403.9v-37.4h5.6v37.4H549.4z"/>
		<path class="st4" d="M588.5,392.4h2.1c-0.1,2.7-0.7,5-1.6,6.8c-0.9,1.8-2.1,3.1-3.6,4c-1.5,0.9-3.2,1.3-5.2,1.3
			c-1.9,0-3.5-0.4-4.9-1.1c-1.4-0.7-2.5-1.8-3.2-3.3c-0.7-1.5-1.1-3.3-1.1-5.5v-18.5h5.6v17.4c0,1.3,0.2,2.5,0.6,3.4
			c0.4,1,1,1.7,1.8,2.2c0.8,0.5,1.8,0.8,3,0.8c1,0,1.9-0.2,2.7-0.6c0.8-0.4,1.5-1,2.1-1.7c0.6-0.7,1-1.5,1.3-2.4
			C588.4,394.3,588.5,393.4,588.5,392.4z M594,376.2v27.7h-5.5v-27.7H594z"/>
		<path class="st4" d="M607.2,380.5v-4.3h15.3v4.3H607.2z M610.9,395.6v-25.8h5.6v25.5c0,1.6,0.3,2.8,1,3.5c0.6,0.8,1.9,1.1,3.8,1.1
			h1.1v4.1c-0.3,0.2-0.7,0.3-1.4,0.4c-0.6,0.1-1.3,0.1-2.1,0.1c-2.7,0-4.7-0.7-6-2.2C611.6,400.8,610.9,398.6,610.9,395.6z"/>
		<path class="st4" d="M636,372.7v-6.3h5.6v6.3H636z M636,403.9v-27.7h5.6v27.7H636z"/>
		<path class="st4" d="M669.3,404.5c-2.7,0-5-0.6-6.9-1.7c-1.9-1.2-3.4-2.8-4.5-5c-1-2.2-1.6-4.8-1.6-7.7c0-3.2,0.5-5.8,1.6-8
			c1.1-2.2,2.6-3.8,4.5-4.9c2-1.1,4.2-1.7,6.8-1.7c2.7,0,5,0.6,7,1.8c1.9,1.2,3.4,2.8,4.4,5s1.5,4.8,1.5,7.8c0,3.1-0.5,5.7-1.6,7.9
			c-1,2.2-2.5,3.8-4.5,4.9C674.2,404,671.9,404.5,669.3,404.5z M669.3,399.9c2.4,0,4.2-0.8,5.4-2.5c1.2-1.7,1.9-4.1,1.9-7.3
			c0-3.2-0.6-5.6-1.9-7.4s-3-2.6-5.4-2.6s-4.2,0.8-5.4,2.5c-1.2,1.7-1.9,4.2-1.9,7.4c0,3.2,0.6,5.6,1.9,7.3
			C665.1,399,666.9,399.9,669.3,399.9z"/>
		<path class="st4" d="M697,403.9v-27.7h5.6v27.7H697z M702.6,387.6h-2.2c0.2-2.7,0.7-5,1.6-6.8c0.9-1.8,2.1-3.2,3.7-4.1
			c1.5-0.9,3.3-1.4,5.2-1.4c1.9,0,3.6,0.4,5,1.1c1.4,0.7,2.5,1.9,3.2,3.3c0.8,1.5,1.1,3.3,1.1,5.5v18.5h-5.5v-17.4
			c0-1.4-0.2-2.5-0.6-3.5c-0.4-1-1-1.7-1.8-2.2c-0.8-0.5-1.8-0.8-3.1-0.8c-1,0-2,0.2-2.8,0.6c-0.8,0.4-1.5,1-2.1,1.7
			c-0.6,0.7-1,1.5-1.3,2.4C702.7,385.7,702.6,386.6,702.6,387.6z"/>
	</g>
	<g>
		<g class="st0">
			<path class="st18" d="M92.5,380.5v-4.3h15.3v4.3H92.5z M96.3,395.6v-25.8h5.6v25.5c0,1.6,0.3,2.8,1,3.5c0.6,0.8,1.9,1.1,3.8,1.1
				h1.1v4.1c-0.3,0.2-0.7,0.3-1.4,0.4c-0.6,0.1-1.3,0.1-2.1,0.1c-2.7,0-4.7-0.7-6-2.2C96.9,400.8,96.3,398.6,96.3,395.6z"/>
			<path class="st18" d="M121.4,403.9v-37.4h5.6v37.4H121.4z M126.9,387.6h-2.2c0.2-2.7,0.7-5,1.6-6.8c0.9-1.8,2.1-3.2,3.7-4.1
				c1.5-0.9,3.3-1.4,5.2-1.4c1.9,0,3.6,0.4,5,1.1c1.4,0.7,2.5,1.9,3.2,3.3c0.8,1.5,1.1,3.3,1.1,5.5v18.5h-5.5v-17.4
				c0-1.4-0.2-2.5-0.6-3.5c-0.4-1-1-1.7-1.8-2.2c-0.8-0.5-1.8-0.8-3.1-0.8c-1,0-2,0.2-2.8,0.6c-0.8,0.4-1.5,1-2.1,1.7
				c-0.6,0.7-1,1.5-1.3,2.4C127.1,385.7,126.9,386.6,126.9,387.6z"/>
			<path class="st18" d="M182.7,387.3l-3.2,2.6c0-3.2-0.6-5.6-1.9-7.3c-1.2-1.7-3-2.5-5.4-2.5c-2.4,0-4.1,0.9-5.4,2.6
				c-1.2,1.7-1.8,4.2-1.8,7.4c0,3.2,0.6,5.6,1.9,7.3c1.3,1.7,3.1,2.6,5.5,2.6c1.8,0,3.2-0.4,4.4-1.2s2-2.1,2.5-3.8h5.8
				c-0.8,3.2-2.3,5.6-4.5,7.3c-2.3,1.6-5,2.4-8.2,2.4c-2.7,0-5-0.6-7-1.7c-2-1.2-3.5-2.8-4.5-5c-1.1-2.2-1.6-4.8-1.6-7.7
				c0-3.2,0.5-5.8,1.6-8c1.1-2.2,2.6-3.8,4.5-4.9c1.9-1.1,4.2-1.7,6.8-1.7c2.7,0,5,0.6,6.9,1.7c1.9,1.2,3.4,2.8,4.4,4.9
				c1,2.1,1.6,4.7,1.6,7.6v1.4h-23.4v-3.8H182.7z"/>
			<path class="st18" d="M209.6,403.9v-27.7h5.6v27.7H209.6z M215.1,387.6h-2.2c0.2-2.7,0.7-5,1.6-6.8c0.9-1.8,2-3.2,3.5-4.1
				c1.5-0.9,3.1-1.4,4.9-1.4c1.8,0,3.4,0.4,4.6,1.1c1.3,0.7,2.3,1.9,3,3.3c0.7,1.5,1.1,3.3,1.1,5.5v18.5h-5.6v-17.4
				c0-1.4-0.2-2.5-0.5-3.5c-0.3-1-0.9-1.7-1.6-2.2c-0.7-0.5-1.7-0.8-2.8-0.8c-0.9,0-1.8,0.2-2.5,0.6c-0.7,0.4-1.4,1-1.9,1.7
				c-0.5,0.7-0.9,1.5-1.2,2.4C215.2,385.7,215.1,386.6,215.1,387.6z M231.6,387.6h-2.9c0.2-2.7,0.7-5,1.6-6.8
				c0.9-1.8,2.1-3.2,3.6-4.1c1.5-0.9,3.2-1.4,5.2-1.4c1.8,0,3.4,0.4,4.8,1.1c1.4,0.7,2.4,1.9,3.1,3.3c0.7,1.5,1.1,3.3,1.1,5.5v18.5
				h-5.6v-17.4c0-1.4-0.2-2.5-0.5-3.5c-0.3-1-0.9-1.7-1.6-2.2c-0.7-0.5-1.7-0.8-2.8-0.8c-0.9,0-1.8,0.2-2.5,0.6
				c-0.7,0.4-1.4,1-1.9,1.7c-0.5,0.7-0.9,1.5-1.2,2.4C231.8,385.7,231.6,386.6,231.6,387.6z"/>
			<path class="st18" d="M286.2,387.3l-3.2,2.6c0-3.2-0.6-5.6-1.9-7.3c-1.2-1.7-3-2.5-5.4-2.5c-2.4,0-4.1,0.9-5.4,2.6
				c-1.2,1.7-1.8,4.2-1.8,7.4c0,3.2,0.6,5.6,1.9,7.3c1.3,1.7,3.1,2.6,5.5,2.6c1.8,0,3.2-0.4,4.4-1.2s2-2.1,2.5-3.8h5.8
				c-0.8,3.2-2.3,5.6-4.5,7.3c-2.3,1.6-5,2.4-8.2,2.4c-2.7,0-5-0.6-7-1.7c-2-1.2-3.5-2.8-4.5-5c-1.1-2.2-1.6-4.8-1.6-7.7
				c0-3.2,0.5-5.8,1.6-8c1.1-2.2,2.6-3.8,4.5-4.9c1.9-1.1,4.2-1.7,6.8-1.7c2.7,0,5,0.6,6.9,1.7c1.9,1.2,3.4,2.8,4.4,4.9
				c1,2.1,1.6,4.7,1.6,7.6v1.4h-23.4v-3.8H286.2z"/>
			<path class="st18" d="M314,404.5c-2.4,0-4.5-0.6-6.3-1.7c-1.8-1.2-3.1-2.8-4.1-5c-0.9-2.2-1.4-4.8-1.4-7.7
				c0-4.7,1.1-8.3,3.2-10.8c2.1-2.5,5-3.8,8.6-3.8c3.1,0,5.6,1.2,7.5,3.7c1.9,2.5,2.8,6.1,2.8,10.9c0,3-0.4,5.6-1.2,7.7
				c-0.8,2.2-2,3.8-3.6,5C317.9,404,316.1,404.5,314,404.5z M314.8,399.9c2.2,0,3.9-0.8,5.1-2.5c1.2-1.7,1.7-4.1,1.7-7.3
				c0-3.2-0.6-5.6-1.8-7.4s-2.9-2.6-5-2.6c-2.2,0-3.9,0.8-5.1,2.5c-1.2,1.7-1.7,4.2-1.7,7.4c0,3.2,0.6,5.6,1.8,7.3
				C310.9,399,312.6,399.9,314.8,399.9z M321.6,403.9v-37.4h5.6v37.4H321.6z"/>
			<path class="st18" d="M343.2,372.7v-6.3h5.6v6.3H343.2z M343.2,403.9v-27.7h5.6v27.7H343.2z"/>
			<path class="st18" d="M388.3,385.8h-5.6c-0.3-2-1.1-3.4-2.3-4.3c-1.2-0.9-2.6-1.4-4.2-1.4c-2.3,0-4.1,0.8-5.3,2.5
				c-1.2,1.7-1.8,4.2-1.8,7.4c0,3.2,0.6,5.6,1.9,7.3c1.3,1.7,3.1,2.6,5.4,2.6c1.7,0,3.1-0.5,4.2-1.4s1.9-2.2,2.3-4h5.5
				c-0.6,3.5-2,6-4.2,7.6c-2.2,1.6-4.8,2.4-7.9,2.4c-2.7,0-5-0.6-6.9-1.7c-1.9-1.2-3.4-2.8-4.4-5c-1-2.2-1.6-4.8-1.6-7.7
				c0-3.2,0.5-5.8,1.6-8c1-2.2,2.5-3.8,4.4-4.9c1.9-1.1,4.2-1.7,6.8-1.7c2.1,0,4,0.4,5.7,1.2c1.7,0.8,3.1,1.9,4.2,3.5
				C387.3,381.6,388,383.5,388.3,385.8z"/>
			<path class="st18" d="M421.3,387v3.8c-2.8,0-5.2,0.1-7,0.4c-1.8,0.3-3.2,0.7-4.2,1.2c-1,0.5-1.7,1.1-2.1,1.8
				c-0.4,0.7-0.6,1.4-0.6,2.3c0,1.2,0.4,2.1,1.4,2.8c0.9,0.7,2.1,1,3.5,1c1.6,0,3-0.4,4.2-1.1c1.2-0.7,2.2-1.7,2.9-3
				c0.7-1.2,1.1-2.6,1.1-4.1h2.5c-0.1,2.2-0.6,4.1-1.3,5.7c-0.7,1.6-1.7,2.9-2.8,3.9c-1.1,1-2.3,1.7-3.7,2.2
				c-1.3,0.5-2.6,0.7-3.9,0.7c-1.9,0-3.5-0.3-4.9-0.9c-1.4-0.6-2.5-1.5-3.3-2.6c-0.8-1.2-1.2-2.6-1.2-4.4c0-1.9,0.5-3.5,1.6-4.9
				s2.6-2.4,4.7-3.1c1.9-0.7,3.9-1.1,6-1.3C416.2,387.1,418.6,387,421.3,387z M408.3,385.2h-5.6c0.3-2,1-3.8,2-5.2
				c1-1.5,2.4-2.6,4.1-3.4c1.7-0.8,3.7-1.2,6-1.2c2.5,0,4.6,0.5,6.3,1.4c1.7,0.9,2.9,2.2,3.8,3.8c0.8,1.6,1.2,3.5,1.2,5.7v10.8
				c0,1.7,0.1,3,0.2,4.1s0.4,1.9,0.7,2.7h-5.8c-0.3-0.7-0.5-1.6-0.6-2.6c-0.1-1-0.1-2.1-0.1-3.2v-11.7c0-2-0.5-3.5-1.5-4.6
				c-1-1.1-2.5-1.6-4.6-1.6c-1.8,0-3.2,0.5-4.2,1.4C409.2,382.4,408.6,383.7,408.3,385.2z"/>
			<path class="st18" d="M442.4,403.9v-37.4h5.6v37.4H442.4z"/>
			<path class="st18" d="M477.9,383.5c0,1,0.3,1.8,0.9,2.3c0.6,0.5,1.5,1,2.5,1.2c1.1,0.3,2.2,0.5,3.5,0.7c1.3,0.2,2.5,0.4,3.8,0.7
				c1.2,0.3,2.4,0.7,3.5,1.2c1.1,0.5,1.9,1.3,2.5,2.3c0.6,1,1,2.3,1,3.9c0,1.7-0.5,3.3-1.5,4.6c-1,1.3-2.3,2.3-4,3
				c-1.7,0.7-3.7,1.1-5.9,1.1c-3.3,0-6.1-0.8-8.3-2.4c-2.2-1.6-3.6-4-4.1-7.4h5.6c0.3,1.7,1,3.1,2.3,4c1.2,0.9,2.8,1.4,4.8,1.4
				c1.9,0,3.3-0.4,4.3-1.1c1-0.8,1.5-1.7,1.5-2.9c0-1-0.3-1.7-0.9-2.3c-0.6-0.6-1.5-1-2.5-1.2c-1.1-0.3-2.2-0.5-3.5-0.7
				c-1.2-0.2-2.5-0.5-3.7-0.8c-1.2-0.3-2.4-0.7-3.4-1.3c-1-0.6-1.9-1.3-2.5-2.3c-0.6-1-0.9-2.3-0.9-3.9c0-1.5,0.4-2.8,1.1-4.1
				c0.7-1.3,1.9-2.3,3.4-3.1c1.5-0.8,3.5-1.2,5.8-1.2c2.1,0,3.9,0.3,5.6,1c1.6,0.7,3,1.7,4.1,3.2c1.1,1.4,1.7,3.3,2,5.6h-5.6
				c-0.3-1.9-1-3.3-2.1-4.1c-1.1-0.8-2.5-1.2-4.3-1.2c-1.5,0-2.7,0.3-3.6,1C478.3,381.6,477.9,382.4,477.9,383.5z"/>
			<path class="st18" d="M521.7,404.5c-2.7,0-5-0.6-6.9-1.7c-1.9-1.2-3.4-2.8-4.5-5c-1-2.2-1.6-4.8-1.6-7.7c0-3.2,0.5-5.8,1.6-8
				c1.1-2.2,2.6-3.8,4.5-4.9c2-1.1,4.2-1.7,6.8-1.7c2.7,0,5,0.6,7,1.8c1.9,1.2,3.4,2.8,4.4,5c1,2.2,1.5,4.8,1.5,7.8
				c0,3.1-0.5,5.7-1.6,7.9c-1,2.2-2.5,3.8-4.5,4.9C526.6,404,524.3,404.5,521.7,404.5z M521.7,399.9c2.4,0,4.2-0.8,5.4-2.5
				c1.2-1.7,1.9-4.1,1.9-7.3c0-3.2-0.6-5.6-1.9-7.4c-1.2-1.7-3-2.6-5.4-2.6c-2.4,0-4.2,0.8-5.4,2.5c-1.2,1.7-1.9,4.2-1.9,7.4
				c0,3.2,0.6,5.6,1.9,7.3C517.5,399,519.3,399.9,521.7,399.9z"/>
			<path class="st18" d="M549.4,403.9v-37.4h5.6v37.4H549.4z"/>
			<path class="st18" d="M588.5,392.4h2.1c-0.1,2.7-0.7,5-1.6,6.8c-0.9,1.8-2.1,3.1-3.6,4c-1.5,0.9-3.2,1.3-5.2,1.3
				c-1.9,0-3.5-0.4-4.9-1.1c-1.4-0.7-2.5-1.8-3.2-3.3c-0.7-1.5-1.1-3.3-1.1-5.5v-18.5h5.6v17.4c0,1.3,0.2,2.5,0.6,3.4
				c0.4,1,1,1.7,1.8,2.2c0.8,0.5,1.8,0.8,3,0.8c1,0,1.9-0.2,2.7-0.6c0.8-0.4,1.5-1,2.1-1.7c0.6-0.7,1-1.5,1.3-2.4
				C588.4,394.3,588.5,393.4,588.5,392.4z M594,376.2v27.7h-5.5v-27.7H594z"/>
			<path class="st18" d="M607.2,380.5v-4.3h15.3v4.3H607.2z M610.9,395.6v-25.8h5.6v25.5c0,1.6,0.3,2.8,1,3.5
				c0.6,0.8,1.9,1.1,3.8,1.1h1.1v4.1c-0.3,0.2-0.7,0.3-1.4,0.4c-0.6,0.1-1.3,0.1-2.1,0.1c-2.7,0-4.7-0.7-6-2.2
				C611.6,400.8,610.9,398.6,610.9,395.6z"/>
			<path class="st18" d="M636,372.7v-6.3h5.6v6.3H636z M636,403.9v-27.7h5.6v27.7H636z"/>
			<path class="st18" d="M669.3,404.5c-2.7,0-5-0.6-6.9-1.7c-1.9-1.2-3.4-2.8-4.5-5c-1-2.2-1.6-4.8-1.6-7.7c0-3.2,0.5-5.8,1.6-8
				c1.1-2.2,2.6-3.8,4.5-4.9c2-1.1,4.2-1.7,6.8-1.7c2.7,0,5,0.6,7,1.8c1.9,1.2,3.4,2.8,4.4,5s1.5,4.8,1.5,7.8c0,3.1-0.5,5.7-1.6,7.9
				c-1,2.2-2.5,3.8-4.5,4.9C674.2,404,671.9,404.5,669.3,404.5z M669.3,399.9c2.4,0,4.2-0.8,5.4-2.5c1.2-1.7,1.9-4.1,1.9-7.3
				c0-3.2-0.6-5.6-1.9-7.4s-3-2.6-5.4-2.6s-4.2,0.8-5.4,2.5c-1.2,1.7-1.9,4.2-1.9,7.4c0,3.2,0.6,5.6,1.9,7.3
				C665.1,399,666.9,399.9,669.3,399.9z"/>
			<path class="st18" d="M697,403.9v-27.7h5.6v27.7H697z M702.6,387.6h-2.2c0.2-2.7,0.7-5,1.6-6.8c0.9-1.8,2.1-3.2,3.7-4.1
				c1.5-0.9,3.3-1.4,5.2-1.4c1.9,0,3.6,0.4,5,1.1c1.4,0.7,2.5,1.9,3.2,3.3c0.8,1.5,1.1,3.3,1.1,5.5v18.5h-5.5v-17.4
				c0-1.4-0.2-2.5-0.6-3.5c-0.4-1-1-1.7-1.8-2.2c-0.8-0.5-1.8-0.8-3.1-0.8c-1,0-2,0.2-2.8,0.6c-0.8,0.4-1.5,1-2.1,1.7
				c-0.6,0.7-1,1.5-1.3,2.4C702.7,385.7,702.6,386.6,702.6,387.6z"/>
		</g>
	</g>
	<path class="st19" d="M445.5,819.8c0-26.7,0-53.2,0-79.8c-0.8-0.1-1.5-0.1-2.3-0.2c-5.5,21.5-10.9,43-16.4,64.4
		c-4.6,17.9-4.7,17.9-25,15.4c-6.7-26.4-13.5-53.1-20.3-79.8c-0.7,0.1-1.5,0.2-2.2,0.3c0,26.3,0,52.5,0,79.7c-7,0-12.9,0-19.3,0
		c0-36,0-71.7,0-108.2c10.5,0,21,0,32.2,0c6.3,23.6,12.7,47.4,19.1,71.2c0.7,0.1,1.5,0.2,2.2,0.3c6.4-23.9,12.7-47.7,19.2-71.9
		c10.5,0,20.8,0,31.9,0c0,36,0,71.9,0,108.7C458.8,819.8,452.8,819.8,445.5,819.8z"/>
	<path class="st14" d="M356,660.6c17.8-13.6,34.9-13.4,46.6,0c10.5,12.1,7.1,31.6-9.1,46.5c6.4-16,17.9-31.5-0.7-45.2
		c-9.8-7.2-18.9-3.6-33,11.3c-4.5-5-8.5-10.7-13.7-14.9c-11.7-9.5-27.8-7-36.5,5c-8.9,12.3-6.6,27.7,6,36.2
		c10.3,6.9,21.5,12.3,31.7,19.3c11.2,7.7,12,15.7,4.5,26.5c-14.6-13.1-30.2-25.5-43.7-39.7c-18.9-19.9-11.9-48.9,12.4-55.5
		C334,646.4,345.7,650.5,356,660.6z"/>
	<path class="st4" d="M671.8,155.8c19.7-15.1,38.6-14.9,51.5,0c11.6,13.4,7.8,34.9-10,51.3c7.1-17.7,19.8-34.8-0.7-49.9
		c-10.9-8-20.9-4-36.5,12.5c-5-5.5-9.4-11.8-15.1-16.5c-12.9-10.5-30.8-7.7-40.3,5.5c-9.8,13.6-7.3,30.7,6.7,40.1
		c11.3,7.6,23.8,13.6,35,21.4c12.4,8.5,13.2,17.4,4.9,29.3c-16.2-14.5-33.4-28.1-48.3-43.9c-20.9-22-13.2-54.1,13.8-61.4
		C647.6,140.1,660.5,144.6,671.8,155.8z"/>
</g>
</svg>
